<mxfile host="app.diagrams.net" modified="2024-07-25T08:31:41.223Z" agent="Mozilla/5.0 (Macintosh; Intel Mac OS X 10_15_7) AppleWebKit/537.36 (KHTML, like Gecko) Chrome/126.0.0.0 Safari/537.36" version="24.6.4" etag="ml38vGzIggS8yh60weO9" type="github">
  <diagram name="第 1 页" id="_MdyWOKnNs4M0TWagV-g">
    <mxGraphModel>
      <root>
        <mxCell id="0" />
        <mxCell id="1" parent="0" />
      </root>
    </mxGraphModel>
  </diagram>
</mxfile>
